<?xml version="1.0" encoding="utf-8"?>
<!-- Generator: Adobe Illustrator 23.0.0, SVG Export Plug-In . SVG Version: 6.00 Build 0)  -->
<svg version="1.1" id="Layer_1" xmlns="http://www.w3.org/2000/svg" xmlns:xlink="http://www.w3.org/1999/xlink" x="0px" y="0px"
	 viewBox="0 0 836.77 800" style="enable-background:new 0 0 836.77 800;" xml:space="preserve">
<g>
	<path d="M449.34,400.48c0,118.31,0,235.13,0,352.52c-48.91,0-97.31,0-146.63,0c0-117.34,0-234.37,0-352.28
		c-23.46,0-46.03,0-69.23,0c0-41.94,0-83.02,0-124.95c22.99,0,45.54,0,69.2,0c0-3.96-0.03-7.09,0-10.22
		c0.28-29.15-1.03-58.42,1.24-87.41c3.7-47.26,22.43-86.97,65.2-111.95c22.2-12.97,46.72-18.39,72.05-18.84
		c38.05-0.67,76.12-0.07,114.18,0.01c1.04,0,2.07,0.25,3.62,0.45c0,40,0,79.8,0,120.69c-5.21,0-10.51,0-15.8,0
		c-20.52,0-41.03-0.09-61.55,0.03c-18.51,0.1-30.73,9.64-31.57,27.71c-1.21,26.07-0.31,52.24-0.31,79.37c37.15,0,73.96,0,111.6,0
		c-4.32,42.06-8.53,83.04-12.82,124.86C515.44,400.48,482.91,400.48,449.34,400.48z"/>
</g>
</svg>
