<?xml version="1.0" encoding="utf-8"?>
<!-- Generator: Adobe Illustrator 23.0.0, SVG Export Plug-In . SVG Version: 6.00 Build 0)  -->
<svg version="1.1" id="Layer_1" xmlns="http://www.w3.org/2000/svg" xmlns:xlink="http://www.w3.org/1999/xlink" x="0px" y="0px"
	 viewBox="0 0 836.77 800" style="enable-background:new 0 0 836.77 800;" xml:space="preserve">
<g>
	<path d="M782.81,402.4c-2.11,58.77-2.39,117.55-6.73,176.04c-7.68,103.57-82.25,178.02-186.05,182.9
		c-88.26,4.15-176.78,3.74-265.19,3.58c-36.26-0.06-73.02-1.83-108.67-7.93c-84.63-14.5-145.85-78.88-155.5-164.26
		c-5.45-48.21-6.37-97.08-6.86-145.68c-0.64-63.53,0.51-127.11,2.14-190.63c1.14-44.25,8.73-87.33,33.65-125.37
		c35.55-54.28,87.33-83.64,150.66-86.87c86.03-4.38,172.33-4.6,258.51-4.56c39.6,0.02,79.86,1.25,118.67,8.3
		c91.61,16.62,151.86,84.72,158.6,177.47C780.32,284.24,780.69,343.39,782.81,402.4z M717.16,403.02c-0.67-0.02-1.34-0.05-2.01-0.07
		c0-7.81,0.24-15.62-0.04-23.42c-1.82-51.55-1.37-103.33-6.27-154.6c-6.01-62.9-43.97-102.43-106.61-112.57
		c-35.39-5.73-71.68-6.77-107.62-7.99c-34.52-1.17-69.14-0.41-103.68,0.52c-50.45,1.36-101.08,1.46-151.27,6.08
		c-61.91,5.7-103.22,45.58-112.39,106.95c-5.19,34.76-6.5,70.22-7.68,105.43c-1.13,33.78-0.32,67.65,0.5,101.46
		c1.23,50.83,0.9,101.86,5.43,152.42c5.83,65.07,44.72,105.7,108.81,115.67c33.26,5.17,67.27,6.26,100.99,7.37
		c33.04,1.09,66.16,0.33,99.23-0.46c52.7-1.27,105.44-2.23,158.04-5.29c30.77-1.79,58.05-14.13,80.56-36.33
		c26.91-26.54,36.39-60.09,38.31-95.99C714.3,509.19,715.35,456.09,717.16,403.02z"/>
	<path d="M416.07,589c-102.9-0.19-185.36-83.6-185.21-187.35c0.14-103.41,83.93-186.32,187.99-186.02
		c102.98,0.29,185.66,84.49,185.39,188.79C603.96,506.78,519.95,589.19,416.07,589z M417.43,281.82
		c-66.59-0.03-120.7,53.92-120.75,120.36c-0.04,66.61,53.93,120.93,120.2,121c67.37,0.06,121.21-53.71,121.15-121
		C537.99,335.49,484.23,281.85,417.43,281.82z"/>
	<path d="M611.62,252.06c-24.79,0-43.82-19.01-43.81-43.77c0.01-24.22,20.28-44.38,44.12-43.89c23.61,0.48,43.38,20.29,43.58,43.66
		C655.71,232.3,636.01,252.06,611.62,252.06z"/>
</g>
</svg>
