<?xml version="1.0" encoding="utf-8"?>
<!-- Generator: Adobe Illustrator 23.0.0, SVG Export Plug-In . SVG Version: 6.00 Build 0)  -->
<svg version="1.1" id="Layer_1" xmlns="http://www.w3.org/2000/svg" xmlns:xlink="http://www.w3.org/1999/xlink" x="0px" y="0px"
	 viewBox="0 0 836.77 800" style="enable-background:new 0 0 836.77 800;" xml:space="preserve">
<style type="text/css">
	.st0{fill:#020202;}
</style>
<g>
	<path class="st0" d="M470.52,779c-54.3,0-106.75,0-160.21,0c0-185.78,0-371.11,0-557.46c52.76,0,105.5,0,159.53,0
		c0,21.27,0,42.5,0,63.73c18.4-47.89,59.18-59.31,102.89-63.65c31.21-3.1,62.84-3.11,93.79,4.76
		c58.78,14.96,92.61,55.03,106.31,111.57c8.41,34.69,14.43,70.8,15.08,106.38c1.98,108.51,0.83,217.07,0.88,325.62
		c0,2.46-0.33,4.92-0.58,8.51c-52.88,0-105.63,0-160.6,0c0-4.85,0-10.01,0-15.18c0-99.01,0.15-198.03-0.21-297.04
		c-0.04-11.85-1.7-24.01-4.68-35.48c-7-26.88-25.87-42.15-52.61-46.18c-14.05-2.12-28.87-1.8-43.02-0.02
		c-27.95,3.52-49.06,24.83-53.77,52.81c-1.78,10.55-2.66,21.38-2.68,32.09c-0.2,97.36-0.12,194.72-0.12,292.07
		C470.52,766.86,470.52,772.19,470.52,779z"/>
	<path class="st0" d="M71.37,221.27c53.96,0,106.41,0,159.64,0c0,186.06,0,371.38,0,557.52c-53.37,0-106.11,0-159.64,0
		C71.37,592.8,71.37,407.48,71.37,221.27z"/>
	<path class="st0" d="M150.88,182.79c-45.77-0.03-80.35-35.01-80.29-81.22c0.06-45.69,35.1-80.07,81.5-79.98
		c44.98,0.09,79.7,35.19,79.7,80.57C231.79,148.01,196.86,182.82,150.88,182.79z"/>
</g>
</svg>
