<?xml version="1.0" encoding="utf-8"?>
<!-- Generator: Adobe Illustrator 23.0.0, SVG Export Plug-In . SVG Version: 6.00 Build 0)  -->
<svg version="1.1" id="Layer_1" xmlns="http://www.w3.org/2000/svg" xmlns:xlink="http://www.w3.org/1999/xlink" x="0px" y="0px"
	 viewBox="0 0 836.77 800" style="enable-background:new 0 0 836.77 800;" xml:space="preserve">
<style type="text/css">
	.st0{fill:#94D2F8;}
</style>
<g>
	<path d="M39.19,303.73c22.49,9.19,45.23,17.48,68.31,18.42c-8.81-9.5-18.84-19.72-28.2-30.51
		c-42.69-49.18-52.27-122.58-24.43-180.24c4.86-10.07,7.22-13.61,16.33-3.11c74.96,86.39,169.37,138.97,281.62,159.67
		c14.51,2.68,29.48,2.75,44.06,5.14c10.02,1.64,11-0.5,9.58-10.48c-11.33-79.86,28.55-152.27,102.18-182.38
		C572.74,54,632.16,65.31,684.67,110.1c8.75,7.46,15.99,9.58,26.86,6.76c30.37-7.88,59.11-19.57,90.88-37.19
		c-13.79,39.81-36.06,67.57-70.53,91.32c33.75-2.45,61.15-12.41,92.06-23.9c-20.04,30.96-42.17,55.21-68.72,75.06
		c-10.59,7.93-13.15,16.27-13.53,29.18c-5.23,177.61-78.42,318.56-229.33,415.44c-60.16,38.62-127.43,57.74-198.79,64.72
		c-104.68,10.23-201.95-10.79-292.78-63.17c-2.74-1.58-5.32-3.44-8.13-7.16c42.13,1.49,83.74-1.29,124.17-13.02
		c40.92-11.87,78.86-29.86,114.93-58.27c-76.15-8.04-127.26-45.73-155.38-117.63c24.62,2.76,47.08,3.81,71.78-2.87
		C92.32,444.4,46.8,396.36,38.71,317.19C37.29,312.65,36.72,308.13,39.19,303.73z"/>
	<path class="st0" d="M39.19,303.73c-0.16,4.49-0.32,8.98-0.48,13.46C37.02,312.64,33.1,308.01,39.19,303.73z"/>
</g>
</svg>
